<svg width="254" height="76" viewBox="0 0 254 76" fill="none" xmlns="http://www.w3.org/2000/svg">
<g filter="url(#filter0_d_349_53)">
<path opacity="0.546" d="M200.966 3.49938C219.983 2.66228 234.418 9.85909 244.269 25.0905C249.565 34.2431 251.085 43.8957 248.827 54.0483C251.273 37.8813 246.136 24.3761 233.41 13.5327C219.508 3.45707 204.359 1.38271 187.963 7.30965C187.797 7.0683 187.842 6.85678 188.097 6.67438C192.266 5.05289 196.556 3.99456 200.966 3.49938Z" fill="black"/>
<path opacity="0.629" d="M202.04 9.08782C219.961 8.70291 232.876 16.0696 240.784 31.1873C243.862 38.1712 244.621 45.368 243.063 52.7784C242.846 52.7 242.668 52.5731 242.526 52.3977C244.9 36.4914 239.092 24.0446 225.098 15.0571C214.108 9.12805 202.667 8.23894 190.778 12.3897C190.598 12.3051 190.421 12.2205 190.242 12.1359C191.317 11.4992 192.48 11.0332 193.727 10.7391C196.5 10.0359 199.272 9.48522 202.04 9.08782Z" fill="black"/>
<path opacity="0.768" d="M202.04 14.6763C216.875 14.1014 227.825 19.9437 234.885 32.2033C237.792 38.389 238.73 44.8236 237.7 51.5086C237.216 51.5106 236.768 51.3837 236.36 51.1271C238.344 35.2424 231.641 24.0654 216.25 17.5975C208.515 14.9829 200.828 15.1105 193.191 17.9782C192.717 17.6433 192.628 17.2618 192.923 16.8353C195.918 15.8033 198.959 15.0834 202.04 14.6763Z" fill="black"/>
<path opacity="0.841" d="M201.771 20.2642C214.77 19.5387 224.197 24.6189 230.059 35.5053C232.191 40.3094 232.681 45.2203 231.533 50.238C231.201 50.0487 230.844 49.9641 230.461 49.9842C231.729 37.6947 226.546 28.8466 214.909 23.4398C210.03 21.6394 205.024 21.2157 199.894 22.1693C198.439 22.5188 197.009 22.8573 195.604 23.1853C195.162 22.7907 195.073 22.3676 195.336 21.9155C197.47 21.199 199.615 20.6484 201.771 20.2642Z" fill="black"/>
<path opacity="0.87" d="M204.452 25.5989C212.595 25.6661 218.896 28.8835 223.355 35.2515C225.996 39.5112 226.935 44.0836 226.171 48.9682C225.551 48.8434 224.927 48.7588 224.294 48.7144C225.09 39.6811 221.248 33.1189 212.764 29.0284C208.075 27.3202 203.34 27.1933 198.553 28.647C198.01 28.3834 197.652 27.9597 197.481 27.3771C197.639 27.047 197.907 26.8354 198.285 26.7418C200.35 26.2064 202.404 25.8257 204.452 25.5989Z" fill="black"/>
<path opacity="0.89" d="M203.648 31.1873C211.55 31.0528 216.958 34.44 219.87 41.3476C220.438 43.4296 220.661 45.5463 220.54 47.6983C219.755 47.6088 218.996 47.4396 218.261 47.1899C218.103 39.0388 213.767 34.467 205.257 33.4732C203.79 33.5634 202.361 33.8172 200.967 34.2354C200.387 33.5627 200.031 32.8005 199.894 31.9495C201.179 31.6929 202.431 31.4391 203.648 31.1873Z" fill="black"/>
<path opacity="0.896" d="M203.38 36.7758C208.155 36.3916 211.687 38.1698 213.971 42.1098C214.513 43.5038 214.735 44.9436 214.641 46.4284C213.748 46.2585 212.853 46.0893 211.96 45.9201C211.155 41.2796 208.252 39.0783 203.246 39.3155C202.86 38.6678 202.546 37.9909 202.308 37.2835C202.696 37.1129 203.053 36.9436 203.38 36.7758Z" fill="black"/>
<path opacity="0.933" d="M204.184 42.1099C208.423 42.2694 209.81 44.2161 208.34 47.9522C206.611 49.6514 204.688 49.8629 202.575 48.5875C200.553 45.8314 201.09 43.6724 204.184 42.1099Z" fill="black"/>
<path opacity="0.972" d="M5.23294 5.53146C18.0301 5.40871 30.8105 5.53562 43.5755 5.91291C43.7432 6.10293 43.8771 6.31516 43.9774 6.54749C44.1568 8.57954 44.1568 10.6116 43.9774 12.6443C43.8771 12.8767 43.7432 13.0889 43.5755 13.2789C38.506 13.6534 33.4115 13.7811 28.2922 13.6604C28.3369 25.1758 28.2922 36.6913 28.1582 48.206C28.058 48.439 27.924 48.6506 27.7563 48.8413C25.3427 49.0105 22.9298 49.0105 20.5162 48.8413C20.3823 48.7144 20.2483 48.5875 20.1143 48.4605C19.9804 36.8605 19.9357 25.2604 19.9804 13.6604C14.9745 13.7027 9.96939 13.6604 4.965 13.5328C4.74172 13.3212 4.51844 13.1097 4.29516 12.8982C4.11581 10.6962 4.11581 8.49493 4.29516 6.29366C4.6019 6.00515 4.91449 5.75131 5.23294 5.53146Z" fill="black"/>
<path opacity="0.956" d="M56.4461 5.53149C67.5289 5.48918 78.6116 5.53149 89.6936 5.65841C90.2404 5.97258 90.553 6.43794 90.6321 7.05588C90.8619 9.01997 90.7726 10.9667 90.3641 12.8982C90.1218 13.2034 89.8092 13.4149 89.4256 13.5328C78.7895 13.7027 68.154 13.7027 57.5186 13.5328C56.8466 13.5092 56.2653 13.2977 55.7756 12.8982C55.5969 10.6962 55.5969 8.49496 55.7756 6.29368C55.963 5.9913 56.1863 5.73678 56.4461 5.53149Z" fill="black"/>
<path opacity="0.97" d="M63.4176 23.0585C71.9981 23.0162 80.5779 23.0585 89.1577 23.1854C89.9791 23.4566 90.381 24.0072 90.3641 24.8367C90.5918 26.7162 90.5025 28.579 90.0962 30.4252C89.8729 30.6367 89.6489 30.8489 89.4256 31.0605C80.9351 31.1874 72.4447 31.2297 63.9535 31.1874C63.8729 33.0662 64.0069 34.9283 64.3554 36.7759C65.3327 38.7427 66.9864 39.6319 69.3158 39.4425C76.198 39.5271 83.0801 39.6124 89.9622 39.697C90.3649 40.0757 90.5889 40.5411 90.6321 41.0938C90.8114 43.2105 90.8114 45.3279 90.6321 47.4445C90.5889 47.9973 90.3649 48.4626 89.9622 48.8413C81.9183 49.0105 73.8744 49.0105 65.8305 48.8413C60.5742 48.0958 57.4015 45.2592 56.3122 40.3316C56.083 39.3239 55.9044 38.3072 55.7756 37.2835C55.5969 33.6425 55.5969 30.0014 55.7756 26.3611C56.2521 25.2424 57.0113 24.3533 58.0545 23.6937C59.8693 23.4281 61.657 23.2159 63.4176 23.0585Z" fill="black"/>
<path opacity="0.964" d="M103.368 5.53142C113.029 5.41629 122.682 5.54321 132.326 5.91286C135.916 6.68893 138.195 8.76329 139.163 12.1359C140.707 17.4692 140.26 22.6347 137.823 27.6309C136.28 29.6539 134.179 30.7976 131.521 31.0604C135.007 36.5206 138.313 42.0668 141.442 47.6983C141.373 48.1269 141.193 48.5077 140.906 48.8413C139.595 49.1242 138.254 49.2511 136.884 49.222C135.433 49.2449 134.001 49.118 132.594 48.8413C129.02 42.9989 125.443 37.1566 121.869 31.3142C118.116 31.1873 114.362 31.145 110.608 31.1873C110.652 36.6066 110.608 42.0259 110.474 47.4445C110.43 47.9972 110.206 48.4626 109.803 48.8413C107.397 49.342 104.983 49.342 102.564 48.8413C102.396 48.6505 102.262 48.439 102.162 48.206C101.898 40.0556 101.987 31.9273 102.43 23.8206C102.564 23.6937 102.698 23.5668 102.832 23.4399C111.782 23.4322 120.72 23.263 129.644 22.9315C130.663 22.3191 131.242 21.43 131.387 20.2642C131.725 18.3139 131.457 16.4511 130.583 14.6764C130.16 14.2845 129.668 13.9884 129.108 13.7872C120.439 13.7026 111.769 13.6173 103.1 13.5327C102.608 13.4058 102.296 13.1097 102.162 12.6443C101.982 10.6116 101.982 8.5795 102.162 6.54744C102.405 6.01204 102.807 5.67359 103.368 5.53142Z" fill="black"/>
<path opacity="0.963" d="M174.422 5.02377C177.16 4.80115 179.439 5.64795 181.259 7.56349C187.209 20.9563 192.974 34.4192 198.554 47.9522C198.439 48.5278 198.081 48.9085 197.481 49.0951C195.248 49.265 193.011 49.265 190.778 49.0951C190.437 49.0167 190.126 48.8898 189.84 48.7144C185.102 37.622 180.366 26.5303 175.629 15.4379C173.269 21.0056 170.99 26.5941 168.791 32.2034C171.314 32.0973 173.819 32.2242 176.299 32.5841C177.326 34.232 178.173 35.9679 178.846 37.7919C179.085 38.6595 178.951 39.464 178.444 40.2047C173.996 40.4939 169.529 40.7054 165.037 40.84C164.01 43.2951 162.981 45.7509 161.954 48.206C161.63 48.5999 161.228 48.8961 160.748 49.0951C158.423 49.265 156.101 49.265 153.776 49.0951C153.529 49.0001 153.307 48.8732 153.106 48.7144C152.926 48.0368 152.926 47.3599 153.106 46.6823C158.415 34.0454 163.778 21.4293 169.193 8.83405C170.341 6.79159 172.084 5.52173 174.422 5.02377Z" fill="black"/>
<path opacity="0.829" d="M47.5972 56.5887C50.4588 56.5464 53.319 56.5887 56.177 56.7157C56.5349 56.9695 56.5349 57.224 56.177 57.4779C55.0188 57.6048 53.857 57.6471 52.6916 57.6048C52.6916 59.9753 52.6916 62.3465 52.6916 64.717C52.2443 64.717 51.7978 64.717 51.3512 64.717C51.3512 62.3465 51.3512 59.9753 51.3512 57.6048C50.0994 57.6048 48.8483 57.6048 47.5972 57.6048C47.5972 57.2663 47.5972 56.9272 47.5972 56.5887Z" fill="black"/>
<path opacity="0.749" d="M58.8583 58.6208C60.403 58.532 61.9227 58.6589 63.4169 59.0022C64.1072 59.9454 64.3752 61.0038 64.2207 62.1772C62.3437 62.1772 60.4674 62.1772 58.5904 62.1772C58.359 63.1073 58.7163 63.6572 59.6629 63.8285C60.7544 64.0713 61.7822 63.9444 62.7463 63.4471C62.8759 63.2064 62.9205 62.9526 62.8803 62.6849C64.2719 62.6058 64.5845 63.1135 63.8188 64.2093C63.5047 64.563 63.1028 64.7752 62.6123 64.8446C57.6358 65.7961 55.9828 63.9763 57.6519 59.383C58.0296 59.0577 58.4315 58.8032 58.8583 58.6208ZM58.8583 59.8906C60.1131 59.849 61.3642 59.8913 62.6123 60.0183C62.8481 60.3622 62.9374 60.7437 62.8803 61.1612C61.4506 61.1612 60.0201 61.1612 58.5904 61.1612C58.5545 60.7055 58.6438 60.2825 58.8583 59.8906Z" fill="black"/>
<path opacity="0.728" d="M67.4381 58.6208C68.9791 58.5473 70.4981 58.6742 71.9967 59.0023C72.4828 59.632 72.6614 60.3519 72.5325 61.1612C72.1753 61.1612 71.8181 61.1612 71.4601 61.1612C71.5179 60.7437 71.4279 60.3623 71.1921 60.0183C69.941 59.8484 68.6899 59.8484 67.4381 60.0183C67.0809 61.2035 67.0809 62.3888 67.4381 63.574C68.6899 63.7439 69.941 63.7439 71.1921 63.574C71.4279 63.23 71.5179 62.8486 71.4601 62.4311C71.8181 62.4311 72.1753 62.4311 72.5325 62.4311C72.6614 63.2404 72.4828 63.9603 71.9967 64.5901C66.6387 66.2032 64.717 64.4673 66.2317 59.383C66.6094 59.0577 67.0121 58.8032 67.4381 58.6208Z" fill="black"/>
<path opacity="0.743" d="M74.4097 56.5887C74.857 56.5887 75.3035 56.5887 75.7508 56.5887C75.7508 57.3509 75.7508 58.1131 75.7508 58.8746C76.9917 58.6257 78.2428 58.5833 79.5041 58.7477C79.9946 58.8171 80.3972 59.0293 80.7105 59.383C81.0817 61.1383 81.2164 62.9166 81.1132 64.717C80.6659 64.717 80.2193 64.717 79.7728 64.717C79.8167 63.1912 79.772 61.6668 79.6381 60.1452C78.387 59.8061 77.1359 59.8061 75.8848 60.1452C75.7508 61.6668 75.7062 63.1912 75.7508 64.717C75.3035 64.717 74.857 64.717 74.4097 64.717C74.4097 62.008 74.4097 59.2984 74.4097 56.5887Z" fill="black"/>
<path opacity="0.744" d="M85.1352 58.6208C86.122 58.5792 87.1052 58.6215 88.0847 58.7477C88.5751 58.8171 88.9771 59.0293 89.2911 59.383C89.6623 61.1384 89.7962 62.9166 89.693 64.717C89.2465 64.717 88.7999 64.717 88.3526 64.717C88.3973 63.1912 88.3526 61.6668 88.2186 60.1452C86.9668 59.8061 85.7164 59.8061 84.4646 60.1452C84.3306 61.6668 84.286 63.1912 84.3306 64.717C83.8834 64.717 83.4368 64.717 82.9902 64.717C82.9902 62.7695 82.9902 60.8228 82.9902 58.8747C83.7633 58.9523 84.4785 58.8684 85.1352 58.6208Z" fill="black"/>
<path opacity="0.744" d="M93.1789 58.6207C97.7865 57.6942 99.5296 59.3878 98.4073 63.7009C98.2828 64.065 98.0588 64.3611 97.7367 64.59C96.1584 64.9909 94.5493 65.0755 92.9102 64.8445C92.4205 64.7752 92.0178 64.563 91.7038 64.2092C91.5252 62.6003 91.5252 60.9913 91.7038 59.3829C92.165 59.0355 92.6562 58.781 93.1789 58.6207ZM92.9102 59.8906C94.2543 59.849 95.5947 59.8913 96.9322 60.0182C97.236 61.139 97.2807 62.2819 97.0669 63.4471C95.695 63.7786 94.3099 63.7786 92.9102 63.4471C92.5691 62.2625 92.5691 61.0766 92.9102 59.8906Z" fill="black"/>
<path opacity="0.737" d="M100.418 56.5887C100.865 56.5887 101.312 56.5887 101.759 56.5887C101.759 59.2984 101.759 62.008 101.759 64.717C101.312 64.717 100.865 64.717 100.418 64.717C100.418 62.008 100.418 59.2984 100.418 56.5887Z" fill="black"/>
<path opacity="0.738" d="M105.245 58.6207C106.499 58.5784 107.75 58.6214 108.998 58.7477C109.514 58.8392 109.96 59.0514 110.34 59.3829C110.641 60.8935 110.685 62.4178 110.474 63.9554C110.373 64.1877 110.239 64.4 110.071 64.59C108.035 65.133 106.024 65.0914 104.038 64.4631C103.614 62.8825 103.525 61.2735 103.77 59.6368C104.16 59.1374 104.652 58.799 105.245 58.6207ZM104.977 59.8906C106.407 59.8906 107.837 59.8906 109.266 59.8906C109.266 61.1612 109.266 62.431 109.266 63.7009C107.837 63.7009 106.407 63.7009 104.977 63.7009C104.619 62.431 104.619 61.1612 104.977 59.8906Z" fill="black"/>
<path opacity="0.795" d="M113.288 58.8746C115.254 58.8746 117.221 58.8746 119.187 58.8746C119.308 61.4421 119.174 63.9818 118.785 66.4952C118.651 66.6221 118.517 66.7497 118.382 66.8766C116.685 67.0459 114.986 67.0459 113.288 66.8766C112.811 66.3343 112.633 65.699 112.752 64.9715C113.109 64.9715 113.467 64.9715 113.825 64.9715C113.779 65.3072 113.869 65.6033 114.093 65.8606C115.254 66.0298 116.417 66.0298 117.579 65.8606C117.918 65.3169 117.918 64.7669 117.579 64.2093C113.074 65.4882 111.421 63.9645 112.618 59.6368C112.899 59.4149 113.122 59.1611 113.288 58.8746ZM114.093 59.8907C115.344 59.8907 116.596 59.8907 117.847 59.8907C117.934 61.0045 117.844 62.1051 117.579 63.1933C114.051 64.2252 112.889 63.1246 114.093 59.8907Z" fill="black"/>
<path opacity="0.769" d="M120.26 58.8746C120.739 58.8025 121.187 58.8871 121.601 59.1291C122.292 60.5238 123.052 61.8783 123.88 63.1933C124.478 61.8076 125.148 60.4531 125.891 59.1291C126.307 58.8871 126.752 58.8025 127.231 58.8746C126.194 61.2673 125.075 63.6385 123.88 65.9875C123.185 66.8884 122.247 67.2275 121.064 67.0035C121.064 66.6651 121.064 66.326 121.064 65.9875C122.126 66.1214 122.751 65.6976 122.941 64.717C122.118 62.7362 121.225 60.7881 120.26 58.8746Z" fill="black"/>
<path opacity="0.774" d="M131.521 56.5887C133.846 56.5464 136.17 56.5887 138.492 56.7157C138.739 56.8107 138.962 56.9376 139.163 57.0971C140.292 59.8428 139.353 61.3242 136.347 61.542C137.38 62.4775 138.364 63.4513 139.297 64.4631C138.782 64.753 138.246 64.7953 137.688 64.59C136.615 63.574 135.543 62.558 134.47 61.542C133.943 61.4164 133.406 61.3741 132.862 61.415C132.862 62.5157 132.862 63.6163 132.862 64.717C132.414 64.717 131.969 64.717 131.521 64.717C131.521 62.008 131.521 59.2984 131.521 56.5887ZM132.862 57.6048C134.473 57.5625 136.082 57.6048 137.688 57.7317C138.278 58.4328 138.369 59.195 137.957 60.0183C136.262 60.1452 134.562 60.1875 132.862 60.1452C132.862 59.2984 132.862 58.4516 132.862 57.6048Z" fill="black"/>
<path opacity="0.786" d="M143.051 58.6207C144.125 58.5784 145.198 58.6214 146.268 58.7477C146.852 58.7893 147.344 59.0008 147.743 59.3829C147.877 61.1591 147.923 62.9373 147.877 64.7169C147.437 64.7717 147.035 64.6871 146.67 64.4631C145.93 64.8508 145.126 65.02 144.257 64.9714C143.311 65.0075 142.415 64.8383 141.576 64.4631C141.396 63.6163 141.396 62.7695 141.576 61.9234C141.71 61.7957 141.844 61.6688 141.978 61.5419C143.584 61.415 145.193 61.3727 146.804 61.415C146.868 60.9157 146.78 60.4496 146.536 60.0182C145.289 59.8913 144.037 59.849 142.782 59.8906C142.782 60.2297 142.782 60.5682 142.782 60.9073C142.335 60.9073 141.89 60.9073 141.442 60.9073C141.254 59.6513 141.79 58.8891 143.051 58.6207ZM142.782 62.431C144.123 62.431 145.464 62.431 146.804 62.431C146.86 62.8485 146.772 63.23 146.536 63.574C145.278 64.065 144.027 64.065 142.782 63.574C142.453 63.196 142.453 62.8145 142.782 62.431Z" fill="black"/>
<path opacity="0.808" d="M155.385 56.5887C155.742 56.5887 156.101 56.5887 156.457 56.5887C156.457 59.2984 156.457 62.008 156.457 64.717C155.768 64.5193 155.14 64.5616 154.58 64.8446C150.376 65.6879 148.813 64.1219 149.888 60.1452C149.96 59.6805 150.186 59.2991 150.559 59.0022C152.165 58.8753 153.773 58.833 155.385 58.8746C155.385 58.1131 155.385 57.3509 155.385 56.5887ZM151.363 59.8907C152.703 59.8907 154.044 59.8907 155.385 59.8907C155.46 61.0933 155.369 62.2785 155.116 63.4471C153.808 63.7779 152.51 63.7779 151.229 63.4471C151.023 62.2404 151.065 61.0544 151.363 59.8907Z" fill="black"/>
<path opacity="0.786" d="M160.211 58.6207C161.286 58.5784 162.359 58.6214 163.429 58.7477C164.013 58.7893 164.504 59.0008 164.903 59.3829C165.037 61.1591 165.083 62.9373 165.037 64.7169C164.598 64.7717 164.195 64.6871 163.831 64.4631C163.091 64.8508 162.286 65.02 161.418 64.9714C160.471 65.0075 159.575 64.8383 158.736 64.4631C158.557 63.6163 158.557 62.7695 158.736 61.9234C158.87 61.7957 159.004 61.6688 159.138 61.5419C160.744 61.415 162.353 61.3727 163.965 61.415C164.029 60.9157 163.941 60.4496 163.697 60.0182C162.45 59.8913 161.197 59.849 159.943 59.8906C159.943 60.2297 159.943 60.5682 159.943 60.9073C159.495 60.9073 159.05 60.9073 158.602 60.9073C158.415 59.6513 158.951 58.8891 160.211 58.6207ZM159.943 62.431C161.284 62.431 162.624 62.431 163.965 62.431C164.021 62.8485 163.932 63.23 163.697 63.574C162.439 64.065 161.187 64.065 159.943 63.574C159.613 63.196 159.613 62.8145 159.943 62.431Z" fill="black"/>
<path opacity="0.82" d="M169.327 58.6208C170.132 58.6208 170.936 58.6208 171.741 58.6208C171.741 59.0446 171.741 59.4677 171.741 59.8907C170.684 59.8165 169.657 59.9011 168.657 60.1452C168.279 61.6384 168.145 63.1628 168.255 64.717C167.898 64.717 167.539 64.717 167.182 64.717C167.182 62.7696 167.182 60.8228 167.182 58.8747C167.622 58.8206 168.024 58.9052 168.389 59.1292C168.738 58.9801 169.051 58.8109 169.327 58.6208Z" fill="black"/>
</g>
<defs>
<filter id="filter0_d_349_53" x="-2" y="0" width="258" height="77.7916" filterUnits="userSpaceOnUse" color-interpolation-filters="sRGB">
<feFlood flood-opacity="0" result="BackgroundImageFix"/>
<feColorMatrix in="SourceAlpha" type="matrix" values="0 0 0 0 0 0 0 0 0 0 0 0 0 0 0 0 0 0 127 0" result="hardAlpha"/>
<feOffset dy="4"/>
<feGaussianBlur stdDeviation="2"/>
<feComposite in2="hardAlpha" operator="out"/>
<feColorMatrix type="matrix" values="0 0 0 0 0 0 0 0 0 0 0 0 0 0 0 0 0 0 0.25 0"/>
<feBlend mode="normal" in2="BackgroundImageFix" result="effect1_dropShadow_349_53"/>
<feBlend mode="normal" in="SourceGraphic" in2="effect1_dropShadow_349_53" result="shape"/>
</filter>
</defs>
</svg>
